HIERARCHY
ROOT Hips
{
	OFFSET 0.000000 0.000000 0.000000
	CHANNELS 6 Xposition Yposition Zposition Zrotation Yrotation Xrotation 
	JOINT LHipJoint
	{
		OFFSET 0.000000 0.000000 0.000000
		CHANNELS 3 Zrotation Yrotation Xrotation
		JOINT LeftUpLeg
		{
			OFFSET 1.363060 -1.794630 0.839290
			CHANNELS 3 Zrotation Yrotation Xrotation
			JOINT LeftLeg
			{
				OFFSET 2.448110 -6.726130 0.000000
				CHANNELS 3 Zrotation Yrotation Xrotation
				JOINT LeftFoot
				{
					OFFSET 2.562200 -7.039590 0.000000
					CHANNELS 3 Zrotation Yrotation Xrotation
					JOINT LeftToeBase
					{
						OFFSET 0.157640 -0.433110 2.322550
						CHANNELS 3 Zrotation Yrotation Xrotation
						End Site
						{
							OFFSET 0.000000 0.000000 0.000000
						}
					}
				}
			}
		}
	}
	JOINT RHipJoint
	{
		OFFSET 0.000000 0.000000 0.000000
		CHANNELS 3 Zrotation Yrotation Xrotation
		JOINT RightUpLeg
		{
			OFFSET -1.305520 -1.794630 0.839290
			CHANNELS 3 Zrotation Yrotation Xrotation
			JOINT RightLeg
			{
				OFFSET -2.542530 -6.985550 0.000000
				CHANNELS 3 Zrotation Yrotation Xrotation
				JOINT RightFoot
				{
					OFFSET -2.568260 -7.056230 0.000000
					CHANNELS 3 Zrotation Yrotation Xrotation
					JOINT RightToeBase
					{
						OFFSET -0.164730 -0.452590 2.363150
						CHANNELS 3 Zrotation Yrotation Xrotation
						End Site
						{
							OFFSET 0.000000 0.000000 0.000000
						}
					}
				}
			}
		}
	}
	JOINT LowerBack
	{
		OFFSET 0.000000 0.000000 0.000000
		CHANNELS 3 Zrotation Yrotation Xrotation
		JOINT Spine
		{
			OFFSET 0.028270 2.035590 -0.193380
			CHANNELS 3 Zrotation Yrotation Xrotation
			JOINT Spine1
			{
				OFFSET 0.056720 2.048850 -0.042750
				CHANNELS 3 Zrotation Yrotation Xrotation
				JOINT Neck
				{
					OFFSET 0.000000 0.000000 0.000000
					CHANNELS 3 Zrotation Yrotation Xrotation
					JOINT Neck1
					{
						OFFSET -0.054170 1.746240 0.172020
						CHANNELS 3 Zrotation Yrotation Xrotation
						JOINT Head
						{
							OFFSET 0.104070 1.761360 -0.123970
							CHANNELS 3 Zrotation Yrotation Xrotation
							End Site
							{
								OFFSET 0.000000 0.000000 0.000000
							}
						}
					}
				}
				JOINT LeftShoulder
				{
					OFFSET 0.000000 0.000000 0.000000
					CHANNELS 3 Zrotation Yrotation Xrotation
					JOINT LeftArm
					{
						OFFSET 3.362410 1.200890 -0.311210
						CHANNELS 3 Zrotation Yrotation Xrotation
						JOINT LeftForeArm
						{
							OFFSET 4.983000 -0.000000 -0.000000
							CHANNELS 3 Zrotation Yrotation Xrotation
							JOINT LeftHand
							{
								OFFSET 3.483560 -0.000000 -0.000000
								CHANNELS 3 Zrotation Yrotation Xrotation
								JOINT LeftFingerBase
								{
									OFFSET 0.000000 0.000000 0.000000
									CHANNELS 3 Zrotation Yrotation Xrotation
									JOINT LeftHandIndex1
									{
										OFFSET 0.715260 -0.000000 -0.000000
										CHANNELS 3 Zrotation Yrotation Xrotation
										End Site
										{
											OFFSET 0.000000 0.000000 0.000000
										}
									}
								}
								JOINT LThumb
								{
									OFFSET 0.000000 0.000000 0.000000
									CHANNELS 3 Zrotation Yrotation Xrotation
									End Site
									{
										OFFSET 0.000000 0.000000 0.000000
									}
								}
							}
						}
					}
				}
				JOINT RightShoulder
				{
					OFFSET 0.000000 0.000000 0.000000
					CHANNELS 3 Zrotation Yrotation Xrotation
					JOINT RightArm
					{
						OFFSET -3.136600 1.374050 -0.404650
						CHANNELS 3 Zrotation Yrotation Xrotation
						JOINT RightForeArm
						{
							OFFSET -5.241900 -0.000000 -0.000000
							CHANNELS 3 Zrotation Yrotation Xrotation
							JOINT RightHand
							{
								OFFSET -3.444170 -0.000000 -0.000000
								CHANNELS 3 Zrotation Yrotation Xrotation
								JOINT RightFingerBase
								{
									OFFSET 0.000000 0.000000 0.000000
									CHANNELS 3 Zrotation Yrotation Xrotation
									JOINT RightHandIndex1
									{
										OFFSET -0.622530 -0.000000 -0.000000
										CHANNELS 3 Zrotation Yrotation Xrotation
										End Site
										{
											OFFSET 0.000000 0.000000 0.000000
										}
									}
								}
								JOINT RThumb
								{
									OFFSET 0.000000 0.000000 0.000000
									CHANNELS 3 Zrotation Yrotation Xrotation
									End Site
									{
										OFFSET 0.000000 0.000000 0.000000
									}
								}
							}
						}
					}
				}
			}
		}
	}
}
MOTION
Frames: 9
Frame Time: 0.008333
10.576070 18.208607 -0.307467 0.872309 -8.804844 9.233335 -0.775758 -1.341055 -1.393802 -19.678989 4.128507 -31.389723 -1.026169 11.140671 28.026918 -2.098325 9.734946 9.859985 0.000100 -0.059000 -0.162100 -0.494147 -1.261627 1.108560 13.205226 1.516372 -9.992549 -8.436970 -16.256510 54.819608 2.819312 -14.584729 17.395808 -0.649800 5.156300 -14.354800 -1.232835 2.506223 -4.459829 0.502102 2.802106 -5.483829 3.645596 1.688753 4.775312 -9.974642 -4.634518 -16.271671 5.913260 -3.968708 6.759254 6.020200 -2.128900 10.119900 -1.413328 -6.637696 -0.706500 -81.094114 3.955715 37.291568 9.349276 -17.759480 -2.313184 0.248766 1.180002 1.716876 10.372104 -20.808475 -3.848000 -7.125000 0.000000 0.000000 -11.732200 8.011700 10.204500 -0.679632 8.167493 0.622058 78.107525 -12.813159 34.887915 -21.001725 28.502618 -7.570523 2.471310 2.214378 -22.419503 -31.309454 -20.112546 13.612200 7.125000 0.000000 0.000000 -6.309500 -54.469800 1.472500 
10.596764 18.237252 -0.163699 1.165783 -8.590649 9.113597 -0.885236 -1.302667 -1.255932 -20.047899 3.944714 -30.641165 -1.113127 10.961953 27.683441 -2.170495 9.860859 9.531057 0.008400 -0.592500 -1.628200 -0.516071 -1.163816 0.946879 13.038581 1.633132 -11.064059 -8.810271 -16.565527 56.131467 3.114217 -14.855516 15.284825 -0.672200 5.242800 -14.602400 -1.509840 2.297230 -4.493343 0.513734 2.552863 -5.455851 3.772595 1.526008 4.984473 -9.993963 -4.570349 -16.435556 5.931595 -3.872936 6.854399 6.039800 -2.084800 10.182900 -1.413004 -6.681972 -0.683111 -80.825325 3.072828 38.145203 9.568523 -18.004209 -2.373315 0.182412 1.191354 0.936850 11.186825 -20.724757 -4.168500 -7.125000 0.000000 0.000000 -11.189000 7.998300 9.715300 -0.668730 8.157065 0.605031 78.197397 -12.477717 33.899447 -20.867324 28.327539 -7.454442 2.427370 2.097766 -21.076443 -30.030132 -19.553450 12.638200 7.125000 0.000000 0.000000 -4.853000 -53.574300 1.025100 
10.624537 18.267966 -0.014377 1.117197 -8.307574 9.007483 -0.983538 -1.252323 -1.116462 -20.089354 3.793403 -29.823098 -1.174467 10.793000 27.392129 -2.209950 9.893679 9.177128 0.017400 -0.852100 -2.341900 -0.530537 -1.068573 0.796566 13.145491 1.755844 -12.009576 -9.056946 -16.818636 57.207376 3.252541 -14.592649 13.132823 -0.522200 4.631400 -12.860300 -1.280880 2.119856 -4.537367 0.536626 2.318157 -5.421521 3.639710 1.382814 5.233561 -9.787065 -4.487413 -16.589269 5.832293 -3.826259 6.899851 5.928600 -2.055200 10.181100 -1.404613 -6.714861 -0.642267 -80.490767 2.089116 38.710356 9.581045 -17.980577 -2.383316 0.138637 1.259894 0.589306 12.004801 -21.309860 -4.626600 -7.125000 0.000000 0.000000 -10.670800 7.255300 9.406600 -0.659480 8.106163 0.600989 78.161104 -12.507876 33.720172 -21.123549 28.602026 -7.572551 2.390307 2.033464 -21.115196 -29.755856 -18.891548 12.092000 7.125000 0.000000 0.000000 -4.580600 -52.731500 0.873000 
10.650568 18.311749 0.131896 0.642475 -8.047993 8.920787 -1.080243 -1.198145 -0.973450 -19.634878 3.769429 -29.026833 -1.222820 10.599135 27.036645 -2.228085 9.909094 9.068103 0.021300 -0.941300 -2.587400 -0.518952 -0.960188 0.651300 13.766546 2.003225 -12.875478 -9.210496 -17.036619 58.029166 3.260584 -14.167463 11.647039 -0.609300 4.996200 -13.897600 -0.596651 2.038670 -4.439739 0.568394 2.181398 -5.402759 3.341888 1.306336 5.312016 -9.459377 -4.389781 -16.591849 5.718118 -3.810662 6.986172 5.783900 -2.042800 10.182500 -1.382224 -6.772533 -0.609032 -80.108685 1.137390 38.856846 9.654318 -18.019023 -2.413867 0.171595 1.273044 0.969519 11.996129 -21.433410 -4.640600 -7.125000 0.000000 0.000000 -10.695400 7.119300 9.457900 -0.658016 8.075325 0.603854 78.117401 -12.757936 33.913739 -21.546268 29.070681 -7.821473 2.372111 2.066343 -21.932520 -30.123325 -18.879413 12.248600 7.125000 0.000000 0.000000 -4.984400 -52.781000 0.956200 
10.668648 18.331572 0.261178 0.093421 -7.692905 8.809565 -1.184442 -1.154063 -0.831369 -19.055751 3.798369 -28.344115 -1.280614 10.384535 26.607448 -2.191584 9.836849 9.271004 0.022400 -0.965200 -2.653100 -0.513211 -0.848464 0.510457 14.571522 2.234287 -13.802447 -9.359180 -17.246706 58.763043 3.333370 -14.091489 10.292400 -0.737200 5.485200 -15.297800 -0.001241 1.854529 -4.139090 0.652515 1.900216 -5.417640 3.369648 1.151561 5.193616 -9.362251 -4.277164 -16.673026 5.608541 -3.691558 7.196730 5.688300 -2.013900 10.344300 -1.323116 -6.871946 -0.617122 -79.882053 0.361201 39.347819 9.843756 -18.205950 -2.467622 0.188791 1.247680 0.707000 11.879977 -21.110962 -4.518500 -7.125000 0.000000 0.000000 -10.772200 7.480400 9.451000 -0.626428 8.097002 0.582248 78.062518 -12.853915 33.568444 -21.706500 29.228406 -7.952681 2.382150 2.146338 -21.891269 -30.385330 -19.713481 12.902500 7.125000 0.000000 0.000000 -5.207300 -53.845100 1.134700 
10.686292 18.349434 0.396777 0.271008 -7.385535 8.624463 -1.287749 -1.107342 -0.674265 -19.263431 3.830206 -27.658701 -1.369670 10.190120 26.265418 -2.030766 9.388537 9.075361 0.015900 -0.813700 -2.236300 -0.535208 -0.766403 0.375691 14.506236 2.301670 -14.774139 -9.456918 -17.406300 59.306157 3.312591 -13.620821 8.695978 -0.665600 5.217600 -14.530100 -0.254553 1.584369 -3.989150 0.716249 1.554656 -5.417577 3.720807 0.935991 5.246228 -9.435543 -4.181578 -16.946095 5.500507 -3.528344 7.434925 5.607300 -1.972000 10.563600 -1.266093 -6.950554 -0.628773 -79.752052 -0.512452 40.171162 10.024612 -18.413358 -2.525900 0.138914 1.277468 -0.369779 12.512235 -21.326741 -4.828500 -7.125000 0.000000 0.000000 -10.368500 7.163100 9.149600 -0.575652 8.096255 0.554562 77.887492 -12.781599 32.979616 -21.685445 29.167300 -7.946808 2.379481 2.142667 -21.708625 -30.284009 -19.675911 12.836200 7.125000 0.000000 0.000000 -5.092600 -53.793000 1.103200 
10.706441 18.366425 0.535208 0.915932 -7.195581 8.467340 -1.356803 -1.069216 -0.527503 -20.028367 3.885029 -27.056514 -1.453653 10.047044 26.073340 -1.821833 8.763769 8.530465 0.002400 -0.317800 -0.873100 -0.561765 -0.683447 0.231625 13.888394 2.491073 -15.794197 -9.528219 -17.545583 59.717373 3.202668 -12.898178 7.205162 -0.645200 5.138300 -14.303500 -0.897842 1.376874 -4.051211 0.709658 1.329482 -5.402249 3.885821 0.781846 5.371709 -9.390056 -4.086678 -16.967801 5.414821 -3.422430 7.528535 5.515700 -1.933100 10.560400 -1.255844 -6.999067 -0.602946 -79.514457 -1.497081 40.499190 10.103598 -18.501583 -2.574812 0.108713 1.354557 -0.837721 13.279030 -22.145797 -5.336700 -7.125000 0.000000 0.000000 -9.914900 6.171300 8.929500 -0.561538 8.067564 0.561426 77.709001 -12.798151 32.941274 -21.797067 29.289636 -8.033036 2.398949 2.163907 -22.280124 -30.967405 -19.582091 13.102300 7.125000 0.000000 0.000000 -5.889200 -53.801000 1.277700 
10.728115 18.375356 0.672005 1.090716 -6.933426 8.341563 -1.444003 -1.018046 -0.379666 -20.304608 3.928323 -26.351735 -1.537563 9.848767 25.699518 -1.764563 8.568405 8.220866 0.000100 -0.056900 -0.156300 -0.563033 -0.590249 0.084658 13.827700 2.870903 -16.674090 -9.542046 -17.675568 60.007672 3.134746 -12.390228 5.521680 -0.584100 4.893400 -13.604900 -0.984688 1.177842 -4.073365 0.726296 1.086526 -5.379626 3.906193 0.628134 5.522198 -9.399747 -3.962528 -16.974271 5.430794 -3.259669 7.619994 5.550600 -1.863300 10.554600 -1.268646 -7.040627 -0.569641 -79.250791 -2.566449 40.564293 10.112963 -18.476512 -2.586498 0.137118 1.372468 -0.930269 13.138876 -22.351593 -5.312800 -7.125000 0.000000 0.000000 -10.030000 5.966700 9.076500 -0.558204 8.046304 0.573569 77.549422 -12.768112 33.042850 -21.887493 29.407627 -8.101745 2.406974 2.183655 -22.716284 -31.389435 -19.535215 13.275600 7.125000 0.000000 0.000000 -6.380700 -53.822200 1.388300 
10.748591 18.366751 0.809129 0.907658 -6.676211 8.191991 -1.543231 -0.949357 -0.252041 -20.090298 3.630516 -25.449934 -1.607028 9.645854 25.271722 -1.926090 8.923539 7.864536 0.003200 -0.366300 -1.006400 -0.558624 -0.499224 -0.061694 14.129726 3.185941 -17.496785 -9.496854 -17.787757 60.182135 2.986263 -11.698051 3.862782 -0.609000 4.994900 -13.894100 -0.713315 0.984438 -4.066191 0.772935 0.829240 -5.328064 3.949506 0.462054 5.849936 -9.506890 -3.834071 -17.176698 5.527644 -3.044616 7.721073 5.687200 -1.764300 10.607800 -1.275581 -7.063403 -0.533787 -79.064392 -3.771266 40.603769 10.167327 -18.490997 -2.593777 0.156688 1.342808 -1.171421 12.807718 -21.940170 -5.072700 -7.125000 0.000000 0.000000 -10.231900 6.451600 9.168400 -0.546728 8.017707 0.577627 77.483757 -12.530938 32.559067 -21.837230 29.376074 -8.070575 2.366885 2.180675 -22.519238 -30.728377 -19.494027 12.943800 7.125000 0.000000 0.000000 -5.615600 -53.676400 1.201000 
